<?xml version="1.0" encoding="UTF-8"?>
<svg version="1.1" xmlns="http://www.w3.org/2000/svg" width="500" height="499">
<path d="M0 0 C165 0 330 0 500 0 C500 164.67 500 329.34 500 499 C335 499 170 499 0 499 C0 334.33 0 169.66 0 0 Z " fill="#FDFDFD" transform="translate(0,0)"/>
<path d="M0 0 C0.66 0.33 1.32 0.66 2 1 C-0.1290142 3.34191563 -2.04408729 4.83554954 -5 6 C-6.32 6 -7.64 6 -9 6 C-9 6.66 -9 7.32 -9 8 C-9.969375 8.268125 -10.93875 8.53625 -11.9375 8.8125 C-15.67197734 9.86971456 -19.32534411 11.12188725 -22.984375 12.4140625 C-25 13 -25 13 -28 13 C-28 13.66 -28 14.32 -28 15 C-30.70730059 16.12753944 -33.41577641 17.25209812 -36.125 18.375 C-36.88554687 18.69210937 -37.64609375 19.00921875 -38.4296875 19.3359375 C-42.57911523 21.05294208 -46.72124806 22.62603127 -51 24 C-52.83576158 24.68841059 -54.67124614 25.37759356 -56.50390625 26.07421875 C-61.02044548 27.7493671 -65.57436409 29.3229482 -70.12109375 30.9140625 C-72.85791757 31.72056968 -72.85791757 31.72056968 -74 33 C-76.24683187 33.53261552 -78.50665479 33.96301616 -80.7734375 34.40234375 C-83.26068208 34.942654 -83.26068208 34.942654 -86 37 C-89.30375931 37.68813307 -92.59876574 38.2484483 -95.93164062 38.76757812 C-100.4483523 39.53233473 -103.91810272 40.82260102 -108 43 C-110.1328125 43.625 -110.1328125 43.625 -112.125 44 C-115.80844016 44.7528653 -119.46983329 45.55569103 -123.125 46.4375 C-124.55199219 46.77587891 -124.55199219 46.77587891 -126.0078125 47.12109375 C-129.11517625 47.96276749 -129.11517625 47.96276749 -132.375 49.49609375 C-136.22220517 51.09218641 -139.79670233 51.91573084 -143.875 52.625 C-148.29775659 53.07424922 -148.29775659 53.07424922 -152 55 C-155.36420719 55.83102797 -158.7829119 56.4197392 -162.1875 57.0625 C-163.13431641 57.24876953 -164.08113281 57.43503906 -165.05664062 57.62695312 C-169.76511995 58.52396279 -174.18159899 59.25104274 -179 59 C-179 59.66 -179 60.32 -179 61 C-199.70591815 65.37851818 -199.70591815 65.37851818 -207.7109375 65.7265625 C-210.11393965 65.92562761 -210.11393965 65.92562761 -212.69848633 66.97973633 C-216.26480588 68.08183271 -219.38989166 68.39316635 -223.11328125 68.59765625 C-223.76830124 68.63684677 -224.42332123 68.67603729 -225.09819031 68.71641541 C-227.16926887 68.83947656 -229.2407264 68.95180927 -231.3125 69.0625 C-233.40201243 69.17801034 -235.49130649 69.29589172 -237.58036804 69.41929626 C-239.46252093 69.52996656 -241.34514735 69.63249355 -243.2277832 69.73461914 C-245.90642719 69.69425836 -245.90642719 69.69425836 -247 71 C-272.31947576 74.29418452 -298.50346103 74.06415453 -323.875 71.6875 C-325.15810059 71.56995361 -326.44120117 71.45240723 -327.76318359 71.33129883 C-334.58503424 70.62040548 -340.59525668 69.4692153 -347 67 C-347 66.34 -347 65.68 -347 65 C-347.721875 64.896875 -348.44375 64.79375 -349.1875 64.6875 C-352.27793421 63.93206053 -354.41743841 62.84468685 -357 61 C-357 60.34 -357 59.68 -357 59 C-357.61359375 58.7421875 -358.2271875 58.484375 -358.859375 58.21875 C-362.50673146 56.14215289 -363.76610277 52.90734122 -365 49 C-365.30601646 45.63381899 -365.2484669 42.36810682 -365 39 C-364.01 39 -363.02 39 -362 39 C-362.185625 40.19625 -362.37125 41.3925 -362.5625 42.625 C-363.0311197 46.28283707 -362.81481013 49.37862166 -362 53 C-361.34 53 -360.68 53 -360 53 C-358.79644952 54.47100615 -357.59304619 55.94213311 -356.390625 57.4140625 C-350.0200995 64.67932473 -339.06301573 66.9085092 -329.8125 67.6875 C-328.93207031 67.73261719 -328.05164063 67.77773438 -327.14453125 67.82421875 C-325 68 -325 68 -323 69 C-321.3761931 69.15319964 -319.74683328 69.2495211 -318.1171875 69.31640625 C-317.12340088 69.35846191 -316.12961426 69.40051758 -315.10571289 69.44384766 C-313.50651001 69.50258057 -313.50651001 69.50258057 -311.875 69.5625 C-310.77986084 69.6042334 -309.68472168 69.6459668 -308.55639648 69.68896484 C-295.54768113 70.15797158 -282.63235423 70.03809889 -269.625 69.5625 C-268.51133057 69.52334473 -267.39766113 69.48418945 -266.25024414 69.44384766 C-264.69164673 69.38076416 -264.69164673 69.38076416 -263.1015625 69.31640625 C-262.16650879 69.27974854 -261.23145508 69.24309082 -260.26806641 69.20532227 C-257.96832574 69.13614279 -257.96832574 69.13614279 -256 68 C-254.13844082 67.8583755 -252.27237255 67.77394683 -250.40625 67.71875 C-249.29378906 67.68136719 -248.18132812 67.64398438 -247.03515625 67.60546875 C-244.67838542 67.53515625 -242.32161458 67.46484375 -239.96484375 67.39453125 C-238.85238281 67.35714844 -237.73992187 67.31976563 -236.59375 67.28125 C-235.05750977 67.23581055 -235.05750977 67.23581055 -233.49023438 67.18945312 C-231.00069084 67.15787643 -231.00069084 67.15787643 -229 66 C-227.30765604 65.73388873 -225.60804409 65.5132314 -223.90625 65.31640625 C-222.359375 65.13174805 -222.359375 65.13174805 -220.78125 64.94335938 C-218.62503194 64.69308406 -216.46878284 64.44307595 -214.3125 64.19335938 C-203.47884169 63.75414434 -203.47884169 63.75414434 -194 60 C-192.50456535 59.81307067 -191.00278214 59.6761363 -189.5 59.5625 C-181.20306715 59.22151401 -181.20306715 59.22151401 -174 56 C-172.845 55.87625 -171.69 55.7525 -170.5 55.625 C-166.46949136 55.17796684 -162.95934177 54.0410993 -159.15234375 52.6875 C-156.15677093 51.73065641 -153.10913959 51.4441628 -150 51 C-147.71047701 50.28043563 -145.45510444 49.48419919 -143.19140625 48.6875 C-141 48 -141 48 -137.4375 47.5 C-133.97494545 46.9963557 -131.20634271 46.0431704 -127.98046875 44.7578125 C-125.04672242 43.63523501 -122.02076623 42.85493384 -119 42 C-118.26652344 41.68289063 -117.53304687 41.36578125 -116.77734375 41.0390625 C-113.33684439 39.75189959 -109.85058415 39.09309769 -106.25 38.4375 C-101.76030709 37.96081277 -101.76030709 37.96081277 -98 36 C-97.01 35.87625 -96.02 35.7525 -95 35.625 C-90.4446706 35.02439876 -86.31744217 33.52536359 -82 32 C-79.87700522 31.26501551 -77.75193069 30.53601563 -75.625 29.8125 C-74.12839844 29.29623047 -74.12839844 29.29623047 -72.6015625 28.76953125 C-70 28 -70 28 -67 28 C-67 27.34 -67 26.68 -67 26 C-66.14003418 25.72905518 -66.14003418 25.72905518 -65.26269531 25.45263672 C-52.31449746 21.51305445 -52.31449746 21.51305445 -40 16 C-33.87162577 12.69401907 -27.42087646 10.72985964 -20.8112793 8.62304688 C-14.34495373 6.53362967 -8.36547199 4.05222441 -2.30078125 0.96875 C-1.54152344 0.6490625 -0.78226562 0.329375 0 0 Z " fill="#E7E7E9" transform="translate(387,268)"/>
<path d="M0 0 C0.375 2.25 0.375 2.25 0 5 C-3.17170047 7.79411708 -5.13640336 8.93602988 -9.375 9.25 C-10.24125 9.1675 -11.1075 9.085 -12 9 C-12 9.66 -12 10.32 -12 11 C-26.19897959 18.35204082 -26.19897959 18.35204082 -35 18 C-35 16.35 -35 14.7 -35 13 C-28.8137931 10.31034483 -28.8137931 10.31034483 -25.6953125 9.12109375 C-20.97925836 7.32055551 -16.67847458 5.29532126 -12.3125 2.75 C-7.85552606 0.2302903 -5.06423781 -0.67523171 0 0 Z " fill="#EAEAEC" transform="translate(144,226)"/>
<path d="M0 0 C1.18335938 0.05873291 1.18335938 0.05873291 2.390625 0.11865234 C7.94024441 0.44024441 7.94024441 0.44024441 9.0625 1.5625 C11.61006104 1.84556234 14.15760022 2.01065786 16.71484375 2.18359375 C19.0625 2.5625 19.0625 2.5625 21.0625 4.5625 C20.4025 4.8925 19.7425 5.2225 19.0625 5.5625 C18.0725 5.0675 18.0725 5.0675 17.0625 4.5625 C13.94980709 4.24817477 10.83632422 4.05160126 7.71484375 3.84375 C5.0625 3.5625 5.0625 3.5625 4.0625 2.5625 C2.47848857 2.45870283 0.88988451 2.42397877 -0.69750977 2.41723633 C-2.22028282 2.40766655 -2.22028282 2.40766655 -3.77381897 2.39790344 C-4.88099777 2.39679062 -5.98817657 2.3956778 -7.12890625 2.39453125 C-8.26271225 2.39120285 -9.39651825 2.38787445 -10.56468201 2.38444519 C-12.9732116 2.37936851 -15.38174826 2.37703709 -17.7902832 2.37719727 C-21.45991838 2.37502374 -25.12924673 2.35691168 -28.79882812 2.33789062 C-31.13801981 2.3349542 -33.47721292 2.33297107 -35.81640625 2.33203125 C-36.90941544 2.32484573 -38.00242462 2.31766022 -39.1285553 2.31025696 C-45.12744515 2.32805056 -50.17202287 2.9424584 -55.9375 4.5625 C-58.58984375 4.78955078 -58.58984375 4.78955078 -60.875 4.7578125 C-62.12216797 4.74814453 -62.12216797 4.74814453 -63.39453125 4.73828125 C-64.23371094 4.72152344 -65.07289063 4.70476562 -65.9375 4.6875 C-66.80761719 4.67847656 -67.67773438 4.66945312 -68.57421875 4.66015625 C-70.6954342 4.63684619 -72.81650562 4.60098579 -74.9375 4.5625 C-74.6075 3.9025 -74.2775 3.2425 -73.9375 2.5625 C-72.21704102 2.16772461 -72.21704102 2.16772461 -69.94140625 1.96484375 C-69.08562988 1.8860498 -68.22985352 1.80725586 -67.34814453 1.72607422 C-66.40825684 1.65146973 -65.46836914 1.57686523 -64.5 1.5 C-63.52659668 1.41766113 -62.55319336 1.33532227 -61.55029297 1.25048828 C-41.09759504 -0.38404447 -20.49630672 -1.04498887 0 0 Z " fill="#EEEEF0" transform="translate(434.9375,163.4375)"/>
<path d="M0 0 C0.99 0.33 1.98 0.66 3 1 C2.13117187 1.7734375 1.26234375 2.546875 0.3671875 3.34375 C-5.75398359 8.85218326 -11.36866297 14.14505468 -16 21 C-17.11834635 22.50496725 -18.24332043 24.00503299 -19.375 25.5 C-19.87773437 26.1703125 -20.38046875 26.840625 -20.8984375 27.53125 C-21.44371094 28.25828125 -21.44371094 28.25828125 -22 29 C-22.33 28.34 -22.66 27.68 -23 27 C-19.1095951 19.16477895 -13.35135156 11.98208694 -7 6 C-6.01 5.67 -5.02 5.34 -4 5 C-4 4.34 -4 3.68 -4 3 C-2.1875 1.3125 -2.1875 1.3125 0 0 Z " fill="#EEEEEF" transform="translate(48,275)"/>
<path d="M0 0 C0.33 0 0.66 0 1 0 C1.49560832 7.48919234 1.00236184 12.61355981 -3 19 C-3.53625 19.99 -4.0725 20.98 -4.625 22 C-5.07875 22.66 -5.5325 23.32 -6 24 C-6.66 24 -7.32 24 -8 24 C-8.020625 24.5775 -8.04125 25.155 -8.0625 25.75 C-9.5766255 29.38390121 -12.55956175 30.24850416 -16 32 C-15 29 -15 29 -13 27 C-12.01 26.67 -11.02 26.34 -10 26 C-8.92214303 24.23229615 -8.92214303 24.23229615 -8 22 C-7.525625 21.12085938 -7.05125 20.24171875 -6.5625 19.3359375 C-3.18928685 12.94369857 -0.92173177 7.18315102 0 0 Z " fill="#EDEDEF" transform="translate(485,187)"/>
<path d="M0 0 C1.65 0.99 3.3 1.98 5 3 C3.25050318 7.27056661 1.09149779 8.36216132 -2.95703125 10.25 C-5.40006301 11.14686826 -7.4198847 11.32251441 -10 11 C-6.2440786 7.57068046 -1.76533255 6.43570917 3 5 C3 4.34 3 3.68 3 3 C2.01 3 1.02 3 0 3 C0 2.01 0 1.02 0 0 Z " fill="#E5E5E7" transform="translate(399,257)"/>
<path d="M0 0 C-6.04323622 3.25405027 -12.34086972 5.40301401 -19 7 C-16.45398308 4.00468598 -13.65531543 2.75995951 -10.0625 1.25 C-9.02222656 0.80140625 -7.98195313 0.3528125 -6.91015625 -0.109375 C-3.98946545 -1.003224 -2.78743446 -1.10154037 0 0 Z " fill="#E0DFE2" transform="translate(365,279)"/>
<path d="M0 0 C0 0.33 0 0.66 0 1 C-8.415 2.485 -8.415 2.485 -17 4 C-17 3.01 -17 2.02 -17 1 C-11.29014022 0.25983299 -5.75813575 -0.10469338 0 0 Z " fill="#EBEBED" transform="translate(203,329)"/>
<path d="M0 0 C1 2 1 2 0.5 3.875 C-1.74484172 7.05519243 -4.56027306 8.21643788 -8 10 C-7 7 -7 7 -5 5 C-4.01 4.67 -3.02 4.34 -2 4 C-0.79117904 1.99983534 -0.79117904 1.99983534 0 0 Z " fill="#E6E7E8" transform="translate(477,209)"/>
<path d="M0 0 C-2.96346786 2.47186455 -5.54041689 3.66248361 -9.25 4.6875 C-10.14203125 4.93886719 -11.0340625 5.19023437 -11.953125 5.44921875 C-12.62859375 5.63097656 -13.3040625 5.81273437 -14 6 C-11.66861296 1.33722592 -4.90356989 -0.61294624 0 0 Z " fill="#EDEDF0" transform="translate(359,282)"/>
</svg>
